<mxfile host="app.diagrams.net" agent="Mozilla/5.0 (Macintosh; Intel Mac OS X 10_15_7) AppleWebKit/605.1.15 (KHTML, like Gecko) Version/17.6 Safari/605.1.15" version="25.0.1">
  <diagram name="Page-1" id="tlLKUwEAaoIh_okFM4wU">
    <mxGraphModel dx="2364" dy="2198" grid="1" gridSize="10" guides="1" tooltips="1" connect="1" arrows="1" fold="1" page="1" pageScale="1" pageWidth="827" pageHeight="1169" math="0" shadow="0">
      <root>
        <mxCell id="0" />
        <mxCell id="1" parent="0" />
        <mxCell id="Oq4xvx31ndR5QJnR-ndJ-14" value="VPC" style="points=[[0,0],[0.25,0],[0.5,0],[0.75,0],[1,0],[1,0.25],[1,0.5],[1,0.75],[1,1],[0.75,1],[0.5,1],[0.25,1],[0,1],[0,0.75],[0,0.5],[0,0.25]];outlineConnect=0;gradientColor=none;html=1;whiteSpace=wrap;fontSize=12;fontStyle=0;container=1;pointerEvents=0;collapsible=0;recursiveResize=0;shape=mxgraph.aws4.group;grIcon=mxgraph.aws4.group_vpc2;strokeColor=#8C4FFF;fillColor=none;verticalAlign=top;align=left;spacingLeft=30;fontColor=#AAB7B8;dashed=0;" vertex="1" parent="1">
          <mxGeometry x="59" y="210" width="1231" height="1680" as="geometry" />
        </mxCell>
        <mxCell id="Oq4xvx31ndR5QJnR-ndJ-3" value="Subnet:ACL" style="shape=mxgraph.ibm.box;prType=subnet;fontStyle=0;verticalAlign=top;align=left;spacingLeft=32;spacingTop=4;fillColor=#E6F0E2;rounded=0;whiteSpace=wrap;html=1;strokeColor=#00882B;strokeWidth=1;dashed=0;container=1;spacing=-4;collapsible=0;expand=0;recursiveResize=0;" vertex="1" parent="Oq4xvx31ndR5QJnR-ndJ-14">
          <mxGeometry x="20" y="230" width="1140" height="370" as="geometry" />
        </mxCell>
        <object label="Availability Zone" id="Oq4xvx31ndR5QJnR-ndJ-15">
          <mxCell style="fillColor=none;strokeColor=#147EBA;dashed=1;verticalAlign=top;fontStyle=0;fontColor=#147EBA;whiteSpace=wrap;html=1;" vertex="1" parent="Oq4xvx31ndR5QJnR-ndJ-14">
            <mxGeometry x="50" y="130" width="1030" height="1230" as="geometry" />
          </mxCell>
        </object>
        <mxCell id="Oq4xvx31ndR5QJnR-ndJ-20" value="EC2&lt;div&gt;(Backend Server)&lt;/div&gt;" style="text;html=1;align=center;verticalAlign=middle;resizable=0;points=[];autosize=1;strokeColor=none;fillColor=none;" vertex="1" parent="Oq4xvx31ndR5QJnR-ndJ-14">
          <mxGeometry x="320" y="840" width="120" height="40" as="geometry" />
        </mxCell>
        <mxCell id="Oq4xvx31ndR5QJnR-ndJ-22" value="db Tier" style="text;html=1;align=center;verticalAlign=middle;resizable=0;points=[];autosize=1;strokeColor=none;fillColor=none;rotation=-90;" vertex="1" parent="Oq4xvx31ndR5QJnR-ndJ-14">
          <mxGeometry x="1001" y="1150" width="60" height="30" as="geometry" />
        </mxCell>
        <mxCell id="Oq4xvx31ndR5QJnR-ndJ-29" value="&lt;font color=&quot;#1e7db6&quot;&gt;us-east-1a&lt;/font&gt;" style="text;html=1;align=center;verticalAlign=middle;resizable=0;points=[];autosize=1;strokeColor=none;fillColor=none;" vertex="1" parent="Oq4xvx31ndR5QJnR-ndJ-14">
          <mxGeometry x="601" y="130" width="80" height="30" as="geometry" />
        </mxCell>
        <mxCell id="Oq4xvx31ndR5QJnR-ndJ-25" value="(Default)" style="text;html=1;align=center;verticalAlign=middle;resizable=0;points=[];autosize=1;strokeColor=none;fillColor=none;" vertex="1" parent="Oq4xvx31ndR5QJnR-ndJ-14">
          <mxGeometry x="103" y="230" width="70" height="30" as="geometry" />
        </mxCell>
        <mxCell id="Oq4xvx31ndR5QJnR-ndJ-32" value="AWS Cloud" style="points=[[0,0],[0.25,0],[0.5,0],[0.75,0],[1,0],[1,0.25],[1,0.5],[1,0.75],[1,1],[0.75,1],[0.5,1],[0.25,1],[0,1],[0,0.75],[0,0.5],[0,0.25]];outlineConnect=0;gradientColor=none;html=1;whiteSpace=wrap;fontSize=12;fontStyle=0;container=1;pointerEvents=0;collapsible=0;recursiveResize=0;shape=mxgraph.aws4.group;grIcon=mxgraph.aws4.group_aws_cloud;strokeColor=#232F3E;fillColor=none;verticalAlign=top;align=left;spacingLeft=30;fontColor=#232F3E;dashed=0;" vertex="1" parent="Oq4xvx31ndR5QJnR-ndJ-14">
          <mxGeometry x="-89" y="-250" width="1320" height="1930" as="geometry" />
        </mxCell>
        <mxCell id="Oq4xvx31ndR5QJnR-ndJ-33" value="" style="sketch=0;points=[[0,0,0],[0.25,0,0],[0.5,0,0],[0.75,0,0],[1,0,0],[0,1,0],[0.25,1,0],[0.5,1,0],[0.75,1,0],[1,1,0],[0,0.25,0],[0,0.5,0],[0,0.75,0],[1,0.25,0],[1,0.5,0],[1,0.75,0]];outlineConnect=0;fontColor=#232F3E;fillColor=#8C4FFF;strokeColor=#ffffff;dashed=0;verticalLabelPosition=bottom;verticalAlign=top;align=center;html=1;fontSize=12;fontStyle=0;aspect=fixed;shape=mxgraph.aws4.resourceIcon;resIcon=mxgraph.aws4.route_53;" vertex="1" parent="Oq4xvx31ndR5QJnR-ndJ-32">
          <mxGeometry x="640" y="40" width="60" height="60" as="geometry" />
        </mxCell>
        <mxCell id="Oq4xvx31ndR5QJnR-ndJ-34" value="" style="sketch=0;outlineConnect=0;fontColor=#232F3E;gradientColor=none;fillColor=#8C4FFF;strokeColor=none;dashed=0;verticalLabelPosition=bottom;verticalAlign=top;align=center;html=1;fontSize=12;fontStyle=0;aspect=fixed;pointerEvents=1;shape=mxgraph.aws4.internet_gateway;" vertex="1" parent="Oq4xvx31ndR5QJnR-ndJ-32">
          <mxGeometry x="650" y="260" width="48" height="48" as="geometry" />
        </mxCell>
        <mxCell id="Oq4xvx31ndR5QJnR-ndJ-35" value="" style="endArrow=classic;html=1;rounded=0;exitX=0.545;exitY=0.921;exitDx=0;exitDy=0;exitPerimeter=0;" edge="1" parent="Oq4xvx31ndR5QJnR-ndJ-32" source="Oq4xvx31ndR5QJnR-ndJ-36" target="Oq4xvx31ndR5QJnR-ndJ-34">
          <mxGeometry width="50" height="50" relative="1" as="geometry">
            <mxPoint x="600" y="130" as="sourcePoint" />
            <mxPoint x="570" y="410" as="targetPoint" />
          </mxGeometry>
        </mxCell>
        <mxCell id="Oq4xvx31ndR5QJnR-ndJ-36" value="Route 53" style="text;html=1;align=center;verticalAlign=middle;resizable=0;points=[];autosize=1;strokeColor=none;fillColor=none;" vertex="1" parent="Oq4xvx31ndR5QJnR-ndJ-32">
          <mxGeometry x="634" y="100" width="70" height="30" as="geometry" />
        </mxCell>
        <mxCell id="Oq4xvx31ndR5QJnR-ndJ-37" value="Internet Gateway" style="text;html=1;align=center;verticalAlign=middle;resizable=0;points=[];autosize=1;strokeColor=none;fillColor=none;" vertex="1" parent="Oq4xvx31ndR5QJnR-ndJ-32">
          <mxGeometry x="619" y="308" width="110" height="30" as="geometry" />
        </mxCell>
        <mxCell id="Oq4xvx31ndR5QJnR-ndJ-40" value="" style="endArrow=classic;html=1;rounded=0;exitX=0.497;exitY=0.946;exitDx=0;exitDy=0;exitPerimeter=0;" edge="1" parent="Oq4xvx31ndR5QJnR-ndJ-32" source="Oq4xvx31ndR5QJnR-ndJ-37">
          <mxGeometry width="50" height="50" relative="1" as="geometry">
            <mxPoint x="560" y="660" as="sourcePoint" />
            <mxPoint x="674.4328003354594" y="370.0005681689054" as="targetPoint" />
          </mxGeometry>
        </mxCell>
        <mxCell id="Oq4xvx31ndR5QJnR-ndJ-41" value="Server Tier" style="text;html=1;align=center;verticalAlign=middle;resizable=0;points=[];autosize=1;strokeColor=none;fillColor=none;rotation=-90;" vertex="1" parent="Oq4xvx31ndR5QJnR-ndJ-32">
          <mxGeometry x="115" y="1080" width="80" height="30" as="geometry" />
        </mxCell>
        <mxCell id="Oq4xvx31ndR5QJnR-ndJ-42" value="Web Tier" style="text;html=1;align=center;verticalAlign=middle;resizable=0;points=[];autosize=1;strokeColor=none;fillColor=none;flipV=0;flipH=1;rotation=-90;" vertex="1" parent="Oq4xvx31ndR5QJnR-ndJ-32">
          <mxGeometry x="120" y="590" width="70" height="30" as="geometry" />
        </mxCell>
        <mxCell id="Oq4xvx31ndR5QJnR-ndJ-44" value="" style="sketch=0;points=[[0,0,0],[0.25,0,0],[0.5,0,0],[0.75,0,0],[1,0,0],[0,1,0],[0.25,1,0],[0.5,1,0],[0.75,1,0],[1,1,0],[0,0.25,0],[0,0.5,0],[0,0.75,0],[1,0.25,0],[1,0.5,0],[1,0.75,0]];points=[[0,0,0],[0.25,0,0],[0.5,0,0],[0.75,0,0],[1,0,0],[0,1,0],[0.25,1,0],[0.5,1,0],[0.75,1,0],[1,1,0],[0,0.25,0],[0,0.5,0],[0,0.75,0],[1,0.25,0],[1,0.5,0],[1,0.75,0]];outlineConnect=0;fontColor=#232F3E;fillColor=#E7157B;strokeColor=#ffffff;dashed=0;verticalLabelPosition=bottom;verticalAlign=top;align=center;html=1;fontSize=12;fontStyle=0;aspect=fixed;shape=mxgraph.aws4.resourceIcon;resIcon=mxgraph.aws4.cloudwatch_2;" vertex="1" parent="Oq4xvx31ndR5QJnR-ndJ-32">
          <mxGeometry x="42" y="40" width="60" height="60" as="geometry" />
        </mxCell>
        <mxCell id="Oq4xvx31ndR5QJnR-ndJ-45" value="Cloudwatch" style="text;html=1;align=center;verticalAlign=middle;resizable=0;points=[];autosize=1;strokeColor=none;fillColor=none;" vertex="1" parent="Oq4xvx31ndR5QJnR-ndJ-32">
          <mxGeometry x="27" y="100" width="90" height="30" as="geometry" />
        </mxCell>
        <mxCell id="Oq4xvx31ndR5QJnR-ndJ-46" value="" style="sketch=0;outlineConnect=0;fontColor=#232F3E;gradientColor=none;fillColor=#7AA116;strokeColor=none;dashed=0;verticalLabelPosition=bottom;verticalAlign=top;align=center;html=1;fontSize=12;fontStyle=0;aspect=fixed;pointerEvents=1;shape=mxgraph.aws4.bucket;" vertex="1" parent="Oq4xvx31ndR5QJnR-ndJ-32">
          <mxGeometry x="634" y="1670" width="57.69" height="60" as="geometry" />
        </mxCell>
        <mxCell id="Oq4xvx31ndR5QJnR-ndJ-47" value="S3 controlled by RDs" style="text;html=1;align=center;verticalAlign=middle;resizable=0;points=[];autosize=1;strokeColor=none;fillColor=none;" vertex="1" parent="Oq4xvx31ndR5QJnR-ndJ-32">
          <mxGeometry x="591.6899999999999" y="1730" width="140" height="30" as="geometry" />
        </mxCell>
        <mxCell id="Oq4xvx31ndR5QJnR-ndJ-53" value="" style="sketch=0;points=[[0,0,0],[0.25,0,0],[0.5,0,0],[0.75,0,0],[1,0,0],[0,1,0],[0.25,1,0],[0.5,1,0],[0.75,1,0],[1,1,0],[0,0.25,0],[0,0.5,0],[0,0.75,0],[1,0.25,0],[1,0.5,0],[1,0.75,0]];outlineConnect=0;fontColor=#232F3E;fillColor=#E7157B;strokeColor=#ffffff;dashed=0;verticalLabelPosition=bottom;verticalAlign=top;align=center;html=1;fontSize=12;fontStyle=0;aspect=fixed;shape=mxgraph.aws4.resourceIcon;resIcon=mxgraph.aws4.sns;" vertex="1" parent="Oq4xvx31ndR5QJnR-ndJ-32">
          <mxGeometry x="370" y="40" width="60" height="60" as="geometry" />
        </mxCell>
        <mxCell id="Oq4xvx31ndR5QJnR-ndJ-54" value="Amazon SNS" style="text;html=1;align=center;verticalAlign=middle;resizable=0;points=[];autosize=1;strokeColor=none;fillColor=none;" vertex="1" parent="Oq4xvx31ndR5QJnR-ndJ-32">
          <mxGeometry x="350" y="100" width="100" height="30" as="geometry" />
        </mxCell>
        <mxCell id="Oq4xvx31ndR5QJnR-ndJ-55" value="" style="endArrow=classic;html=1;rounded=0;exitX=1;exitY=0.5;exitDx=0;exitDy=0;exitPerimeter=0;" edge="1" parent="Oq4xvx31ndR5QJnR-ndJ-32" source="Oq4xvx31ndR5QJnR-ndJ-44" target="Oq4xvx31ndR5QJnR-ndJ-56">
          <mxGeometry width="50" height="50" relative="1" as="geometry">
            <mxPoint x="720" y="360" as="sourcePoint" />
            <mxPoint x="770" y="310" as="targetPoint" />
          </mxGeometry>
        </mxCell>
        <mxCell id="Oq4xvx31ndR5QJnR-ndJ-56" value="" style="sketch=0;outlineConnect=0;fontColor=#232F3E;gradientColor=none;fillColor=#E7157B;strokeColor=none;dashed=0;verticalLabelPosition=bottom;verticalAlign=top;align=center;html=1;fontSize=12;fontStyle=0;aspect=fixed;pointerEvents=1;shape=mxgraph.aws4.alarm;" vertex="1" parent="Oq4xvx31ndR5QJnR-ndJ-32">
          <mxGeometry x="190" y="40" width="60" height="60" as="geometry" />
        </mxCell>
        <mxCell id="Oq4xvx31ndR5QJnR-ndJ-57" value="AWS Alarm" style="text;html=1;align=center;verticalAlign=middle;resizable=0;points=[];autosize=1;strokeColor=none;fillColor=none;" vertex="1" parent="Oq4xvx31ndR5QJnR-ndJ-32">
          <mxGeometry x="175" y="100" width="90" height="30" as="geometry" />
        </mxCell>
        <mxCell id="Oq4xvx31ndR5QJnR-ndJ-58" value="" style="endArrow=classic;html=1;rounded=0;entryX=0;entryY=0.5;entryDx=0;entryDy=0;entryPerimeter=0;" edge="1" parent="Oq4xvx31ndR5QJnR-ndJ-32" source="Oq4xvx31ndR5QJnR-ndJ-56" target="Oq4xvx31ndR5QJnR-ndJ-53">
          <mxGeometry width="50" height="50" relative="1" as="geometry">
            <mxPoint x="700" y="330" as="sourcePoint" />
            <mxPoint x="750" y="280" as="targetPoint" />
          </mxGeometry>
        </mxCell>
        <mxCell id="Oq4xvx31ndR5QJnR-ndJ-11" value="Public subnet" style="points=[[0,0],[0.25,0],[0.5,0],[0.75,0],[1,0],[1,0.25],[1,0.5],[1,0.75],[1,1],[0.75,1],[0.5,1],[0.25,1],[0,1],[0,0.75],[0,0.5],[0,0.25]];outlineConnect=0;gradientColor=none;html=1;whiteSpace=wrap;fontSize=12;fontStyle=0;container=1;pointerEvents=0;collapsible=0;recursiveResize=0;shape=mxgraph.aws4.group;grIcon=mxgraph.aws4.group_security_group;grStroke=0;strokeColor=#7AA116;fillColor=#F2F6E8;verticalAlign=top;align=left;spacingLeft=30;fontColor=#248814;dashed=0;" vertex="1" parent="Oq4xvx31ndR5QJnR-ndJ-32">
          <mxGeometry x="215.5" y="600" width="319" height="190" as="geometry" />
        </mxCell>
        <mxCell id="Oq4xvx31ndR5QJnR-ndJ-19" value="" style="sketch=0;outlineConnect=0;fontColor=#232F3E;gradientColor=none;fillColor=#8C4FFF;strokeColor=none;dashed=0;verticalLabelPosition=bottom;verticalAlign=top;align=center;html=1;fontSize=12;fontStyle=0;aspect=fixed;pointerEvents=1;shape=mxgraph.aws4.nat_gateway;" vertex="1" parent="Oq4xvx31ndR5QJnR-ndJ-11">
          <mxGeometry x="54.5" y="40" width="50" height="50" as="geometry" />
        </mxCell>
        <mxCell id="Oq4xvx31ndR5QJnR-ndJ-43" value="NAT gateway" style="text;html=1;align=center;verticalAlign=middle;resizable=0;points=[];autosize=1;strokeColor=none;fillColor=none;" vertex="1" parent="Oq4xvx31ndR5QJnR-ndJ-11">
          <mxGeometry x="34.5" y="100" width="90" height="30" as="geometry" />
        </mxCell>
        <mxCell id="Oq4xvx31ndR5QJnR-ndJ-27" value="&lt;div style=&quot;text-align: start;&quot;&gt;&lt;font color=&quot;#178737&quot;&gt;1(10.0.0.0/20)&lt;/font&gt;&lt;/div&gt;" style="text;html=1;align=center;verticalAlign=middle;resizable=0;points=[];autosize=1;strokeColor=none;fillColor=none;" vertex="1" parent="Oq4xvx31ndR5QJnR-ndJ-14">
          <mxGeometry x="220" y="350" width="100" height="30" as="geometry" />
        </mxCell>
        <mxCell id="Oq4xvx31ndR5QJnR-ndJ-1" value="Subnet:ACL" style="shape=mxgraph.ibm.box;prType=subnet;fontStyle=0;verticalAlign=top;align=left;spacingLeft=32;spacingTop=4;fillColor=#E6F0E2;rounded=0;whiteSpace=wrap;html=1;strokeColor=#00882B;strokeWidth=1;dashed=0;container=1;spacing=-4;collapsible=0;expand=0;recursiveResize=0;" vertex="1" parent="Oq4xvx31ndR5QJnR-ndJ-14">
          <mxGeometry x="20" y="1090" width="748" height="240" as="geometry" />
        </mxCell>
        <mxCell id="Oq4xvx31ndR5QJnR-ndJ-6" value="Security group" style="fillColor=none;strokeColor=#DD3522;verticalAlign=top;fontStyle=0;fontColor=#DD3522;whiteSpace=wrap;html=1;" vertex="1" parent="Oq4xvx31ndR5QJnR-ndJ-1">
          <mxGeometry x="38" y="30" width="595" height="200" as="geometry" />
        </mxCell>
        <mxCell id="Oq4xvx31ndR5QJnR-ndJ-26" value="(Custom)" style="text;html=1;align=center;verticalAlign=middle;resizable=0;points=[];autosize=1;strokeColor=none;fillColor=none;" vertex="1" parent="Oq4xvx31ndR5QJnR-ndJ-1">
          <mxGeometry x="85" y="-5" width="70" height="30" as="geometry" />
        </mxCell>
        <mxCell id="Oq4xvx31ndR5QJnR-ndJ-2" value="Subnet:ACL" style="shape=mxgraph.ibm.box;prType=subnet;fontStyle=0;verticalAlign=top;align=left;spacingLeft=32;spacingTop=4;fillColor=#E6F0E2;rounded=0;whiteSpace=wrap;html=1;strokeColor=#00882B;strokeWidth=1;dashed=0;container=1;spacing=-4;collapsible=0;expand=0;recursiveResize=0;" vertex="1" parent="1">
          <mxGeometry x="79" y="860" width="1141" height="330" as="geometry" />
        </mxCell>
        <mxCell id="Oq4xvx31ndR5QJnR-ndJ-59" value="(Custom)" style="text;html=1;align=center;verticalAlign=middle;resizable=0;points=[];autosize=1;strokeColor=none;fillColor=none;" vertex="1" parent="Oq4xvx31ndR5QJnR-ndJ-2">
          <mxGeometry x="86" y="-5" width="70" height="30" as="geometry" />
        </mxCell>
        <mxCell id="Oq4xvx31ndR5QJnR-ndJ-8" value="Private subnet" style="points=[[0,0],[0.25,0],[0.5,0],[0.75,0],[1,0],[1,0.25],[1,0.5],[1,0.75],[1,1],[0.75,1],[0.5,1],[0.25,1],[0,1],[0,0.75],[0,0.5],[0,0.25]];outlineConnect=0;gradientColor=none;html=1;whiteSpace=wrap;fontSize=12;fontStyle=0;container=1;pointerEvents=0;collapsible=0;recursiveResize=0;shape=mxgraph.aws4.group;grIcon=mxgraph.aws4.group_security_group;grStroke=0;strokeColor=#00A4A6;fillColor=#E6F6F7;verticalAlign=top;align=left;spacingLeft=30;fontColor=#147EBA;dashed=0;" vertex="1" parent="1">
          <mxGeometry x="169" y="910" width="911" height="230" as="geometry" />
        </mxCell>
        <mxCell id="Oq4xvx31ndR5QJnR-ndJ-9" value="Security group" style="fillColor=none;strokeColor=#DD3522;verticalAlign=top;fontStyle=0;fontColor=#DD3522;whiteSpace=wrap;html=1;" vertex="1" parent="1">
          <mxGeometry x="359" y="950" width="211" height="170" as="geometry" />
        </mxCell>
        <mxCell id="Oq4xvx31ndR5QJnR-ndJ-12" value="Region" style="points=[[0,0],[0.25,0],[0.5,0],[0.75,0],[1,0],[1,0.25],[1,0.5],[1,0.75],[1,1],[0.75,1],[0.5,1],[0.25,1],[0,1],[0,0.75],[0,0.5],[0,0.25]];outlineConnect=0;gradientColor=none;html=1;whiteSpace=wrap;fontSize=12;fontStyle=0;container=1;pointerEvents=0;collapsible=0;recursiveResize=0;shape=mxgraph.aws4.group;grIcon=mxgraph.aws4.group_region;strokeColor=#00A4A6;fillColor=none;verticalAlign=top;align=left;spacingLeft=30;fontColor=#147EBA;dashed=1;" vertex="1" parent="1">
          <mxGeometry x="29" y="140" width="1240" height="1660" as="geometry" />
        </mxCell>
        <mxCell id="Oq4xvx31ndR5QJnR-ndJ-90" value="" style="sketch=0;points=[[0,0,0],[0.25,0,0],[0.5,0,0],[0.75,0,0],[1,0,0],[0,1,0],[0.25,1,0],[0.5,1,0],[0.75,1,0],[1,1,0],[0,0.25,0],[0,0.5,0],[0,0.75,0],[1,0.25,0],[1,0.5,0],[1,0.75,0]];outlineConnect=0;fontColor=#232F3E;fillColor=#ED7100;strokeColor=#ffffff;dashed=0;verticalLabelPosition=bottom;verticalAlign=top;align=center;html=1;fontSize=12;fontStyle=0;aspect=fixed;shape=mxgraph.aws4.resourceIcon;resIcon=mxgraph.aws4.auto_scaling2;" vertex="1" parent="Oq4xvx31ndR5QJnR-ndJ-12">
          <mxGeometry x="776" y="850" width="60" height="60" as="geometry" />
        </mxCell>
        <mxCell id="Oq4xvx31ndR5QJnR-ndJ-60" value="&lt;font color=&quot;#1da3a5&quot;&gt;&lt;span style=&quot;caret-color: rgb(29, 163, 165);&quot;&gt;us-east-1&lt;/span&gt;&lt;/font&gt;" style="text;html=1;align=center;verticalAlign=middle;resizable=0;points=[];autosize=1;strokeColor=none;fillColor=none;" vertex="1" parent="Oq4xvx31ndR5QJnR-ndJ-12">
          <mxGeometry x="70" width="70" height="30" as="geometry" />
        </mxCell>
        <mxCell id="Oq4xvx31ndR5QJnR-ndJ-91" value="EC2(BackEnd Server)" style="whiteSpace=wrap;html=1;fillColor=none;fontColor=#333333;strokeColor=none;" vertex="1" parent="Oq4xvx31ndR5QJnR-ndJ-12">
          <mxGeometry x="731" y="920" width="150" height="30" as="geometry" />
        </mxCell>
        <mxCell id="Oq4xvx31ndR5QJnR-ndJ-5" value="Private subnet" style="points=[[0,0],[0.25,0],[0.5,0],[0.75,0],[1,0],[1,0.25],[1,0.5],[1,0.75],[1,1],[0.75,1],[0.5,1],[0.25,1],[0,1],[0,0.75],[0,0.5],[0,0.25]];outlineConnect=0;gradientColor=none;html=1;whiteSpace=wrap;fontSize=12;fontStyle=0;container=1;pointerEvents=0;collapsible=0;recursiveResize=0;shape=mxgraph.aws4.group;grIcon=mxgraph.aws4.group_security_group;grStroke=0;strokeColor=#00A4A6;fillColor=#E6F6F7;verticalAlign=top;align=left;spacingLeft=30;fontColor=#147EBA;dashed=0;" vertex="1" parent="Oq4xvx31ndR5QJnR-ndJ-12">
          <mxGeometry x="261" y="1220" width="375" height="150" as="geometry" />
        </mxCell>
        <mxCell id="Oq4xvx31ndR5QJnR-ndJ-61" value="&lt;div style=&quot;text-align: start;&quot;&gt;&lt;font&gt;3(10.0.160.0/20)&lt;/font&gt;&lt;/div&gt;" style="text;html=1;align=center;verticalAlign=middle;resizable=0;points=[];autosize=1;strokeColor=none;fillColor=none;fontColor=#1E7DB6;" vertex="1" parent="Oq4xvx31ndR5QJnR-ndJ-5">
          <mxGeometry x="118.33999999999992" width="110" height="30" as="geometry" />
        </mxCell>
        <mxCell id="Oq4xvx31ndR5QJnR-ndJ-50" value="" style="sketch=0;outlineConnect=0;fontColor=#232F3E;gradientColor=none;fillColor=#C925D1;strokeColor=none;dashed=0;verticalLabelPosition=bottom;verticalAlign=top;align=center;html=1;fontSize=12;fontStyle=0;aspect=fixed;pointerEvents=1;shape=mxgraph.aws4.rds_instance;" vertex="1" parent="Oq4xvx31ndR5QJnR-ndJ-5">
          <mxGeometry x="69" y="40" width="70" height="70" as="geometry" />
        </mxCell>
        <mxCell id="Oq4xvx31ndR5QJnR-ndJ-49" value="AWS RDs" style="text;html=1;align=center;verticalAlign=middle;resizable=0;points=[];autosize=1;strokeColor=none;fillColor=none;" vertex="1" parent="Oq4xvx31ndR5QJnR-ndJ-5">
          <mxGeometry x="64" y="100" width="80" height="30" as="geometry" />
        </mxCell>
        <mxCell id="Oq4xvx31ndR5QJnR-ndJ-92" value="Security group" style="fillColor=none;strokeColor=#DD3522;verticalAlign=top;fontStyle=0;fontColor=#DD3522;whiteSpace=wrap;html=1;" vertex="1" parent="Oq4xvx31ndR5QJnR-ndJ-12">
          <mxGeometry x="700.5" y="810" width="211" height="170" as="geometry" />
        </mxCell>
        <mxCell id="Oq4xvx31ndR5QJnR-ndJ-13" value="Users" style="sketch=0;outlineConnect=0;fontColor=#232F3E;gradientColor=none;strokeColor=#232F3E;fillColor=#ffffff;dashed=0;verticalLabelPosition=bottom;verticalAlign=top;align=center;html=1;fontSize=12;fontStyle=0;aspect=fixed;shape=mxgraph.aws4.resourceIcon;resIcon=mxgraph.aws4.users;" vertex="1" parent="1">
          <mxGeometry x="619" y="-210" width="60" height="60" as="geometry" />
        </mxCell>
        <mxCell id="Oq4xvx31ndR5QJnR-ndJ-63" value="" style="endArrow=classic;html=1;rounded=0;entryX=0.5;entryY=0;entryDx=0;entryDy=0;entryPerimeter=0;" edge="1" parent="1" target="Oq4xvx31ndR5QJnR-ndJ-33">
          <mxGeometry width="50" height="50" relative="1" as="geometry">
            <mxPoint x="649" y="-130" as="sourcePoint" />
            <mxPoint x="549" y="340" as="targetPoint" />
          </mxGeometry>
        </mxCell>
        <mxCell id="Oq4xvx31ndR5QJnR-ndJ-69" value="" style="sketch=0;outlineConnect=0;fontColor=#232F3E;gradientColor=none;fillColor=#8C4FFF;strokeColor=none;dashed=0;verticalLabelPosition=bottom;verticalAlign=top;align=center;html=1;fontSize=12;fontStyle=0;aspect=fixed;pointerEvents=1;shape=mxgraph.aws4.route_table;" vertex="1" parent="1">
          <mxGeometry x="638.34" y="1000" width="51.32" height="50" as="geometry" />
        </mxCell>
        <mxCell id="Oq4xvx31ndR5QJnR-ndJ-71" value="" style="endArrow=classic;startArrow=classic;html=1;rounded=0;" edge="1" parent="1">
          <mxGeometry width="50" height="50" relative="1" as="geometry">
            <mxPoint x="665" y="900" as="sourcePoint" />
            <mxPoint x="657" y="640" as="targetPoint" />
          </mxGeometry>
        </mxCell>
        <mxCell id="Oq4xvx31ndR5QJnR-ndJ-72" value="" style="endArrow=classic;startArrow=classic;html=1;rounded=0;" edge="1" parent="1" target="Oq4xvx31ndR5QJnR-ndJ-2">
          <mxGeometry width="50" height="50" relative="1" as="geometry">
            <mxPoint x="324" y="1300" as="sourcePoint" />
            <mxPoint x="669" y="1159.9999999999995" as="targetPoint" />
            <Array as="points">
              <mxPoint x="324" y="1200" />
              <mxPoint x="669" y="1200" />
            </Array>
          </mxGeometry>
        </mxCell>
        <mxCell id="Oq4xvx31ndR5QJnR-ndJ-78" value="" style="html=1;verticalLabelPosition=bottom;align=center;labelBackgroundColor=#ffffff;verticalAlign=top;strokeWidth=2;strokeColor=#0080F0;shadow=0;dashed=0;shape=mxgraph.ios7.icons.user;" vertex="1" parent="1">
          <mxGeometry x="359" y="-240" width="40" height="45" as="geometry" />
        </mxCell>
        <mxCell id="Oq4xvx31ndR5QJnR-ndJ-79" value="DevOps Engineer" style="text;html=1;align=center;verticalAlign=middle;resizable=0;points=[];autosize=1;strokeColor=none;fillColor=none;" vertex="1" parent="1">
          <mxGeometry x="319" y="-195" width="120" height="30" as="geometry" />
        </mxCell>
        <mxCell id="Oq4xvx31ndR5QJnR-ndJ-80" value="" style="endArrow=classic;html=1;rounded=0;exitX=0.5;exitY=0;exitDx=0;exitDy=0;exitPerimeter=0;entryX=0.491;entryY=1.138;entryDx=0;entryDy=0;entryPerimeter=0;" edge="1" parent="1" source="Oq4xvx31ndR5QJnR-ndJ-53" target="Oq4xvx31ndR5QJnR-ndJ-79">
          <mxGeometry width="50" height="50" relative="1" as="geometry">
            <mxPoint x="699" y="280" as="sourcePoint" />
            <mxPoint x="749" y="230" as="targetPoint" />
          </mxGeometry>
        </mxCell>
        <mxCell id="Oq4xvx31ndR5QJnR-ndJ-82" value="" style="verticalLabelPosition=bottom;verticalAlign=top;html=1;shape=mxgraph.basic.patternFillRect;fillStyle=diag;step=5;fillStrokeWidth=0.2;fillStrokeColor=#dddddd;fillColor=#E6F0E3;strokeColor=#178737;" vertex="1" parent="1">
          <mxGeometry x="-381" y="930" width="270" height="120" as="geometry" />
        </mxCell>
        <mxCell id="Oq4xvx31ndR5QJnR-ndJ-83" value="app-tier-nacl" style="text;html=1;align=center;verticalAlign=middle;resizable=0;points=[];autosize=1;strokeColor=none;fillColor=none;fontColor=#178737;" vertex="1" parent="1">
          <mxGeometry x="-381" y="930" width="90" height="30" as="geometry" />
        </mxCell>
        <mxCell id="Oq4xvx31ndR5QJnR-ndJ-84" value="Inbound-rules:&lt;div&gt;traffic from public subnet 1 and 2(80 and 443)&lt;/div&gt;&lt;div&gt;traffic from private subnet 3 and 4(3306)&lt;/div&gt;&lt;div&gt;outbound rules:&lt;/div&gt;&lt;div&gt;Traffic to public subnet 1 and 2(80 and 443)&lt;/div&gt;&lt;div&gt;Traffic to private subnet 3 and 4(3306)&lt;/div&gt;" style="text;html=1;align=left;verticalAlign=center;resizable=0;points=[];autosize=1;strokeColor=none;fillColor=none;font-color=178737;fontColor=#178737;" vertex="1" parent="1">
          <mxGeometry x="-371" y="940" width="270" height="100" as="geometry" />
        </mxCell>
        <mxCell id="Oq4xvx31ndR5QJnR-ndJ-85" value="" style="endArrow=none;html=1;rounded=0;entryX=0;entryY=0.381;entryDx=0;entryDy=0;entryPerimeter=0;strokeColor=#178737;" edge="1" parent="1" target="Oq4xvx31ndR5QJnR-ndJ-2">
          <mxGeometry width="50" height="50" relative="1" as="geometry">
            <mxPoint x="-111" y="980" as="sourcePoint" />
            <mxPoint x="399" y="940" as="targetPoint" />
          </mxGeometry>
        </mxCell>
        <mxCell id="Oq4xvx31ndR5QJnR-ndJ-86" value="" style="verticalLabelPosition=bottom;verticalAlign=top;html=1;shape=mxgraph.basic.patternFillRect;fillStyle=diag;step=5;fillStrokeWidth=0.2;fillStrokeColor=#dddddd;fillColor=#E6F0E3;strokeColor=#178737;" vertex="1" parent="1">
          <mxGeometry x="-381" y="1310" width="270" height="110" as="geometry" />
        </mxCell>
        <mxCell id="Oq4xvx31ndR5QJnR-ndJ-87" value="" style="endArrow=none;html=1;rounded=0;entryX=-0.001;entryY=0.598;entryDx=0;entryDy=0;entryPerimeter=0;strokeColor=#178737;exitX=1;exitY=0.5;exitDx=0;exitDy=0;exitPerimeter=0;" edge="1" parent="1" source="Oq4xvx31ndR5QJnR-ndJ-86" target="Oq4xvx31ndR5QJnR-ndJ-1">
          <mxGeometry width="50" height="50" relative="1" as="geometry">
            <mxPoint x="-101" y="990" as="sourcePoint" />
            <mxPoint x="89" y="1008" as="targetPoint" />
          </mxGeometry>
        </mxCell>
        <mxCell id="Oq4xvx31ndR5QJnR-ndJ-88" value="&lt;div&gt;db-tier-nacl&lt;/div&gt;&lt;div&gt;&lt;br&gt;&lt;/div&gt;Inbound-rules:&lt;div&gt;traffic from private subnet 3 and 4(3306)&lt;br&gt;&lt;/div&gt;&lt;div&gt;outbound rules:&lt;/div&gt;&lt;div&gt;Traffic to private subnet 3 and 4(3306)&lt;/div&gt;" style="text;html=1;align=left;verticalAlign=center;resizable=0;points=[];autosize=1;strokeColor=none;fillColor=none;font-color=178737;fontColor=#178737;" vertex="1" parent="1">
          <mxGeometry x="-371" y="1310" width="240" height="100" as="geometry" />
        </mxCell>
        <mxCell id="Oq4xvx31ndR5QJnR-ndJ-66" value="" style="sketch=0;points=[[0,0,0],[0.25,0,0],[0.5,0,0],[0.75,0,0],[1,0,0],[0,1,0],[0.25,1,0],[0.5,1,0],[0.75,1,0],[1,1,0],[0,0.25,0],[0,0.5,0],[0,0.75,0],[1,0.25,0],[1,0.5,0],[1,0.75,0]];outlineConnect=0;fontColor=#232F3E;fillColor=#ED7100;strokeColor=#ffffff;dashed=0;verticalLabelPosition=bottom;verticalAlign=top;align=center;html=1;fontSize=12;fontStyle=0;aspect=fixed;shape=mxgraph.aws4.resourceIcon;resIcon=mxgraph.aws4.auto_scaling2;" vertex="1" parent="1">
          <mxGeometry x="420" y="990" width="60" height="60" as="geometry" />
        </mxCell>
        <mxCell id="Oq4xvx31ndR5QJnR-ndJ-89" value="EC2(BackEnd Server)" style="whiteSpace=wrap;html=1;fillColor=none;fontColor=#333333;strokeColor=none;" vertex="1" parent="1">
          <mxGeometry x="380" y="1060" width="150" height="30" as="geometry" />
        </mxCell>
        <mxCell id="Oq4xvx31ndR5QJnR-ndJ-52" value="" style="endArrow=classic;html=1;rounded=0;exitX=0.529;exitY=0.972;exitDx=0;exitDy=0;exitPerimeter=0;" edge="1" parent="1" source="Oq4xvx31ndR5QJnR-ndJ-49" target="Oq4xvx31ndR5QJnR-ndJ-46">
          <mxGeometry width="50" height="50" relative="1" as="geometry">
            <mxPoint x="699" y="1470" as="sourcePoint" />
            <mxPoint x="749" y="1420" as="targetPoint" />
            <Array as="points">
              <mxPoint x="330" y="1630" />
            </Array>
          </mxGeometry>
        </mxCell>
      </root>
    </mxGraphModel>
  </diagram>
</mxfile>
